<svg width="64" height="64" viewBox="0 0 64 64" fill="none" xmlns="http://www.w3.org/2000/svg">
<path d="M38.2492 0.754684C38.2492 0.829059 38.4532 1.02562 39.6261 2.08812C40.437 2.82125 43.0634 5.54656 43.7621 6.38593C45.7511 8.75531 47.378 11.1831 48.6223 13.6375C50.9173 18.1691 52.0699 22.6103 52.0699 26.9453C52.0699 29.8778 51.6619 32.024 50.6317 34.5422C50.2849 35.3869 49.6984 36.63 49.3363 37.2834C49.015 37.8572 48.3673 38.7656 48.2755 38.7656C48.2347 38.7656 48.0919 38.6381 47.9542 38.4787C47.8216 38.3194 47.021 37.4322 46.1795 36.5025C43.502 33.5381 37.5913 26.9028 35.8267 24.8734C33.9806 22.7537 33.2666 21.7656 33.389 21.5C33.4349 21.3884 34.4089 20.5278 38.5449 16.9366C40.2075 15.4969 41.5641 14.2962 41.5539 14.2697C41.5029 14.1316 38.3206 10.6094 38.239 10.6094C38.2135 10.6094 37.7749 10.8219 37.2649 11.0822C35.8216 11.8259 34.4446 12.3572 33.4604 12.5591C32.6546 12.7237 31.5326 12.6494 29.6354 12.3094C29.3142 12.2509 29.0286 12.2244 28.998 12.2403C28.8297 12.3466 24.0307 16.4584 17.3498 22.2331C13.6524 25.4259 13.2138 25.819 13.2699 25.904C13.4433 26.1484 19.0022 33.3415 19.1195 33.469L19.2572 33.6125L19.5836 33.3309C21.9805 31.2856 23.3575 30.1328 23.944 29.6706C24.7753 29.0278 25.632 28.3903 25.785 28.3106C25.8819 28.2575 25.989 28.3531 26.8815 29.2987C30.5738 33.1875 36.0511 39.2969 39.417 43.2812C39.8505 43.7912 40.2636 44.2747 40.3299 44.3543C40.5033 44.5562 40.4472 44.6093 39.7995 44.875C38.7132 45.3159 37.2802 45.6453 35.8573 45.7834C34.8781 45.8737 32.5883 45.8153 31.5938 45.6772C29.0898 45.3265 26.9529 44.705 24.7447 43.7009C22.567 42.7075 21.1492 41.7087 18.3596 39.2119C17.3243 38.2822 16.7837 37.8253 16.3961 37.5331C15.8963 37.1665 16.1411 37.0337 14.0655 38.8028C10.9597 41.4484 3.02933 48.3493 0.47429 50.6231L0 51.0428L0.188696 51.4253C0.525288 52.1318 1.30557 53.2847 2.28985 54.5437C3.14153 55.6328 6.03317 59.1656 6.06887 59.1656C6.12496 59.1656 7.66003 57.9915 8.8738 57.0193C10.4242 55.7762 11.4135 54.9368 14.8662 51.9193C16.6307 50.3787 18.1301 49.0772 18.1964 49.0347C18.2729 48.9762 18.329 48.9709 18.3749 49.0081C19.0226 49.5447 21.4093 51.3934 21.904 51.7387C23.4646 52.8225 25.3566 53.869 26.9529 54.5331C32.3078 56.759 38.0452 56.9981 43.298 55.2237C44.2313 54.9103 44.8943 54.634 46.4447 53.9115C47.2097 53.5609 47.8573 53.2687 47.8828 53.2687C47.9389 53.2687 48.7447 54.1825 51.0754 56.8812C51.973 57.9172 53.0694 59.1868 53.5182 59.6968C54.6402 60.9772 57.1646 63.7343 57.2513 63.7715C57.4451 63.8459 63.7333 57.8853 63.9934 57.3806C64.0393 57.2956 63.8659 57.0778 62.8459 55.925C61.0865 53.9434 59.9798 52.6631 58.2866 50.6656C55.5123 47.3825 55.5888 47.4781 55.5888 47.3134C55.5888 46.984 55.8285 46.4475 57.0116 44.1578C58.4447 41.374 59.3882 38.2344 59.7707 34.9725C60.8315 25.9519 57.7052 16.4744 51.31 9.29718C49.9024 7.71937 47.7655 5.86531 45.7511 4.47343C43.6703 3.03906 41.7477 2.01906 39.2946 1.04687C38.5195 0.738747 38.2492 0.664372 38.2492 0.754684Z" fill="black"/>
</svg>
